<?xml version="1.0" encoding="UTF-8"?>
<svg version="1.1" xmlns="http://www.w3.org/2000/svg" width="512" height="512">
<path d="M0 0 C145.86 0 291.72 0 442 0 C442 155.1 442 310.2 442 470 C324.52 470 207.04 470 86 470 C86 483.86 86 497.72 86 512 C82.46617641 510.58647057 80.29268263 509.68333886 77.37109375 507.58203125 C76.72849609 507.13279297 76.08589844 506.68355469 75.42382812 506.22070312 C74.09146737 505.27612878 72.76336785 504.32551695 71.43945312 503.36914062 C70.79814453 502.92376953 70.15683594 502.47839844 69.49609375 502.01953125 C68.92044678 501.60807861 68.3447998 501.19662598 67.75170898 500.77270508 C65.39423774 499.73278919 64.38136814 500.08358345 62 501 C59.97327458 502.11501085 59.97327458 502.11501085 57.9609375 503.50390625 C57.21585938 503.99697266 56.47078125 504.49003906 55.703125 504.99804688 C54.93484375 505.51431641 54.1665625 506.03058594 53.375 506.5625 C51.84389423 507.5887478 50.3101628 508.61109253 48.7734375 509.62890625 C48.09716309 510.08338135 47.42088867 510.53785645 46.72412109 511.00610352 C45 512 45 512 43 512 C43 498.14 43 484.28 43 470 C28.81 470 14.62 470 0 470 C0 314.9 0 159.8 0 0 Z M96 157 C96 177.79 96 198.58 96 220 C101.61 220 107.22 220 113 220 C113 213.4 113 206.8 113 200 C115.31 200.0825 117.62 200.165 120 200.25 C126.14924626 200.32271738 131.07788822 199.93280395 136 196 C141.17374333 190.94122874 143.5365909 185.64107148 144.4375 178.5625 C143.45745357 170.5821219 140.19382823 165.53675813 134.09765625 160.41015625 C122.58843372 152.6730439 110.78910178 157 96 157 Z M157 168 C150.62506889 176.38635975 149.04056254 184.56919272 150 195 C151.74056649 202.75543551 156.0244294 208.83881721 162 214 C170.82890903 219.48046353 179.1387199 221.35368014 189.47265625 219.57421875 C198.46309286 216.98966643 205.06629165 211.00326226 209.84765625 203.109375 C213.82081056 195.83648237 214.05267311 188.19271633 212.41796875 180.12890625 C209.79737758 171.6927566 204.74783466 165.24313629 197.4609375 160.265625 C183.33352636 152.84769231 167.49471785 156.47684654 157 168 Z M223 157 C223 177.79 223 198.58 223 220 C228.28 220 233.56 220 239 220 C239 213.4 239 206.8 239 200 C247 201 247 201 248.63232422 202.85766602 C248.9367041 203.64842529 249.24108398 204.43918457 249.5546875 205.25390625 C249.93326904 206.10944092 250.31185059 206.96497559 250.7019043 207.84643555 C251.08902588 208.74273682 251.47614746 209.63903809 251.875 210.5625 C254.81880422 216.92618489 254.81880422 216.92618489 260.25244141 220.89550781 C265.59856681 221.68461166 270.72373248 220.99256518 276 220 C274.2010497 214.92365174 271.50973545 210.36286389 268.875 205.6875 C268.40707031 204.85154297 267.93914062 204.01558594 267.45703125 203.15429688 C266.3073741 201.10133767 265.15496198 199.04997798 264 197 C264.40992188 196.46890625 264.81984375 195.9378125 265.2421875 195.390625 C265.78101563 194.68421875 266.31984375 193.9778125 266.875 193.25 C267.40867187 192.55390625 267.94234375 191.8578125 268.4921875 191.140625 C272.63174192 185.26374463 272.71732808 180.06431962 272 173 C270.28404462 166.81434048 266.31649221 162.47064149 261 159 C256.76943576 156.89148833 252.92866241 156.73564005 248.29296875 156.8046875 C247.64928345 156.80670166 247.00559814 156.80871582 246.34240723 156.81079102 C243.95736478 156.82118826 241.57242459 156.84911053 239.1875 156.875 C231.1746875 156.936875 231.1746875 156.936875 223 157 Z M279 157 C279 161.62 279 166.24 279 171 C285.27 171 291.54 171 298 171 C298 187.17 298 203.34 298 220 C303.28 220 308.56 220 314 220 C314 203.83 314 187.66 314 171 C319.94 171 325.88 171 332 171 C332 166.38 332 161.76 332 157 C314.51 157 297.02 157 279 157 Z M96 235 C96 255.79 96 276.58 96 298 C101.61 298 107.22 298 113 298 C113 290.08 113 282.16 113 274 C119.93 274 126.86 274 134 274 C134 269.71 134 265.42 134 261 C127.07 261 120.14 261 113 261 C113 257.37 113 253.74 113 250 C121.58 250 130.16 250 139 250 C139 245.05 139 240.1 139 235 C124.81 235 110.62 235 96 235 Z M150 247 C143.94986381 255.51269162 142.66299654 263.71890445 144 274 C144.88592083 277.36649917 146.14951805 280.0623599 148 283 C148.4125 283.69609375 148.825 284.3921875 149.25 285.109375 C153.2469147 291.15016653 158.98797176 295.30136281 165.8671875 297.6328125 C175.34511975 299.26454443 183.91608406 298.74307338 192.33984375 293.890625 C200.24910787 288.26935652 204.84988132 281.47396046 207 272 C208.40725079 262.48639828 205.32230871 253.85154571 199.8125 246.125 C196.17188691 241.75782678 192.16343547 239.27152984 187 237 C186.05125 236.566875 185.1025 236.13375 184.125 235.6875 C170.91395374 232.78106982 158.77254984 236.64635107 150 247 Z M217 235 C217 255.79 217 276.58 217 298 C231.85 298 246.7 298 262 298 C262 293.38 262 288.76 262 284 C252.43 284 242.86 284 233 284 C233 267.83 233 251.66 233 235 C227.72 235 222.44 235 217 235 Z M270 235 C270 255.79 270 276.58 270 298 C275.61 298 281.22 298 287 298 C287 277.21 287 256.42 287 235 C281.39 235 275.78 235 270 235 Z M303 247 C297.21948671 255.42184831 296.18115203 262.85798302 297 273 C299.22005112 282.56226837 305.28739584 289.3994893 313.12890625 294.9921875 C320.35197185 298.88269047 328.01010905 298.88954653 336 298 C345.57495392 295.07524636 352.40109557 289.22651364 357.375 280.62109375 C361.09340149 272.57746831 361.41416497 264.07577966 358.375 255.75 C353.88805541 245.99441316 347.62900278 239.70070484 337.625 235.625 C323.88307475 233.25570254 312.35925615 236.30639206 303 247 Z " fill="#000000" transform="translate(35,0)"/>
<path d="M0 0 C3.74635624 1.70886425 5.39473666 3.21315766 7.875 6.4375 C9.77193653 12.44446568 10.25026428 19.23638394 8.23828125 25.29296875 C5.75447281 29.89734092 2.88006195 32.37331268 -2 34 C-8.41550928 34.53462577 -11.79800755 33.87599437 -17 30 C-20.74300097 24.01119845 -22.11120421 17.95333404 -20.5390625 10.9453125 C-19.23477061 6.87899073 -17.53992514 3.46200606 -14.00390625 0.84765625 C-9.51476092 -1.05126097 -4.73517188 -0.69501151 0 0 Z " fill="#000000" transform="translate(216,250)"/>
<path d="M0 0 C3.74635624 1.70886425 5.39473666 3.21315766 7.875 6.4375 C9.95032815 13.00937248 9.99407032 20.01778903 7.8125 26.5625 C5.35731164 29.86430503 2.68011621 32.15994189 -1 34 C-5.21019538 34.43011819 -8.88692855 34.4699635 -12.8125 32.8125 C-17.60015478 28.84558604 -19.88999946 25.15545757 -21 19 C-21.09119842 12.61611082 -20.2572753 7.98709392 -16 3 C-11.31082339 -1.3268782 -6.04548497 -0.72027866 0 0 Z " fill="#000000" transform="translate(369,250)"/>
<path d="M0 0 C3.62011046 2.33296007 5.89022378 4.96794755 7.8125 8.8125 C8.43946649 16.73694531 8.91955956 23.42867555 3.8125 29.8125 C0.96568063 32.86266361 -1.97216492 33.45161633 -6.1015625 33.8046875 C-11.10763173 33.82343682 -14.2395946 32.63401801 -18 29.375 C-21.54632743 24.57219232 -22.43296816 18.39019849 -22.03125 12.53515625 C-21.00936479 7.41590439 -18.82036 4.36087489 -15.1875 0.8125 C-10.25711815 -2.0419316 -5.27340493 -1.96460184 0 0 Z " fill="#000000" transform="translate(223.1875,172.1875)"/>
<path d="M0 0 C12.46945585 -0.37037988 12.46945585 -0.37037988 14.86328125 1.30078125 C16.75731225 4.13206471 16.88424523 6.64311175 17 10 C15.95703125 12.70703125 15.95703125 12.70703125 14 15 C10.64453125 15.48828125 10.64453125 15.48828125 6.8125 15.3125 C3.4403125 15.1578125 3.4403125 15.1578125 0 15 C0 10.05 0 5.1 0 0 Z " fill="#000000" transform="translate(274,171)"/>
<path d="M0 0 C10.45081967 -0.36885246 10.45081967 -0.36885246 12.83203125 1.23046875 C14.30285386 3.45883879 14.40156715 4.84328474 14.375 7.5 C14.38273438 8.2734375 14.39046875 9.046875 14.3984375 9.84375 C14 12 14 12 12.83203125 13.76953125 C9.12966933 16.25619224 4.27207136 15.15077899 0 15 C0 10.05 0 5.1 0 0 Z " fill="#000000" transform="translate(148,171)"/>
</svg>
